<mxfile host="Electron" modified="2024-02-03T17:30:03.698Z" agent="Mozilla/5.0 (Windows NT 10.0; Win64; x64) AppleWebKit/537.36 (KHTML, like Gecko) draw.io/23.0.2 Chrome/120.0.6099.109 Electron/28.1.0 Safari/537.36" etag="UXq0XAgapLd7myJA53MN" version="23.0.2" type="device">
  <diagram id="C5RBs43oDa-KdzZeNtuy" name="Page-1">
    <mxGraphModel dx="2336" dy="2049" grid="1" gridSize="10" guides="1" tooltips="1" connect="1" arrows="1" fold="1" page="1" pageScale="1" pageWidth="827" pageHeight="1169" math="0" shadow="0">
      <root>
        <mxCell id="WIyWlLk6GJQsqaUBKTNV-0" />
        <mxCell id="WIyWlLk6GJQsqaUBKTNV-1" parent="WIyWlLk6GJQsqaUBKTNV-0" />
        <mxCell id="K9f1tfayxkEBepAMyHmp-85" value="" style="group;sketch=1;curveFitting=1;jiggle=2;fillColor=#d0cee2;strokeColor=#56517e;" vertex="1" connectable="0" parent="WIyWlLk6GJQsqaUBKTNV-1">
          <mxGeometry x="-240" y="60" width="620" height="810" as="geometry" />
        </mxCell>
        <mxCell id="K9f1tfayxkEBepAMyHmp-84" value="" style="rounded=0;whiteSpace=wrap;html=1;fillColor=none;" vertex="1" parent="K9f1tfayxkEBepAMyHmp-85">
          <mxGeometry width="620" height="810" as="geometry" />
        </mxCell>
        <mxCell id="K9f1tfayxkEBepAMyHmp-82" value="" style="group" vertex="1" connectable="0" parent="K9f1tfayxkEBepAMyHmp-85">
          <mxGeometry width="620" height="570" as="geometry" />
        </mxCell>
        <mxCell id="K9f1tfayxkEBepAMyHmp-0" value="Idle" style="text;html=1;strokeColor=none;fillColor=none;align=center;verticalAlign=middle;whiteSpace=wrap;rounded=0;fontSize=60;fontFamily=Verdana;horizontal=1;fontStyle=4" vertex="1" parent="K9f1tfayxkEBepAMyHmp-82">
          <mxGeometry x="130" width="200" height="110" as="geometry" />
        </mxCell>
        <mxCell id="K9f1tfayxkEBepAMyHmp-5" value="Left Mouse Click" style="rounded=1;whiteSpace=wrap;html=1;fontSize=14;" vertex="1" parent="K9f1tfayxkEBepAMyHmp-82">
          <mxGeometry x="155" y="150" width="150" height="60" as="geometry" />
        </mxCell>
        <mxCell id="K9f1tfayxkEBepAMyHmp-6" value="Click on Unit?" style="rhombus;whiteSpace=wrap;html=1;shadow=0;fontFamily=Helvetica;fontSize=12;align=center;strokeWidth=1;spacing=6;spacingTop=-4;" vertex="1" parent="K9f1tfayxkEBepAMyHmp-82">
          <mxGeometry x="180" y="280" width="100" height="80" as="geometry" />
        </mxCell>
        <mxCell id="K9f1tfayxkEBepAMyHmp-7" value="Unit is on Player side?" style="rhombus;whiteSpace=wrap;html=1;shadow=0;strokeWidth=1;spacing=6;spacingTop=-4;" vertex="1" parent="K9f1tfayxkEBepAMyHmp-82">
          <mxGeometry x="182" y="440" width="96" height="90" as="geometry" />
        </mxCell>
        <mxCell id="K9f1tfayxkEBepAMyHmp-8" value="" style="edgeStyle=orthogonalEdgeStyle;rounded=0;orthogonalLoop=1;jettySize=auto;html=1;" edge="1" parent="K9f1tfayxkEBepAMyHmp-82" source="K9f1tfayxkEBepAMyHmp-6" target="K9f1tfayxkEBepAMyHmp-7">
          <mxGeometry relative="1" as="geometry" />
        </mxCell>
        <mxCell id="K9f1tfayxkEBepAMyHmp-16" value="Yes" style="edgeLabel;html=1;align=center;verticalAlign=middle;resizable=0;points=[];" vertex="1" connectable="0" parent="K9f1tfayxkEBepAMyHmp-8">
          <mxGeometry x="-0.33" relative="1" as="geometry">
            <mxPoint x="26" y="13" as="offset" />
          </mxGeometry>
        </mxCell>
        <mxCell id="K9f1tfayxkEBepAMyHmp-9" value="Do Nothing" style="rounded=1;whiteSpace=wrap;html=1;shadow=0;strokeWidth=1;spacing=6;spacingTop=-4;" vertex="1" parent="K9f1tfayxkEBepAMyHmp-82">
          <mxGeometry x="350" y="290" width="120" height="60" as="geometry" />
        </mxCell>
        <mxCell id="K9f1tfayxkEBepAMyHmp-10" value="" style="edgeStyle=orthogonalEdgeStyle;rounded=0;orthogonalLoop=1;jettySize=auto;html=1;" edge="1" parent="K9f1tfayxkEBepAMyHmp-82" source="K9f1tfayxkEBepAMyHmp-6" target="K9f1tfayxkEBepAMyHmp-9">
          <mxGeometry relative="1" as="geometry" />
        </mxCell>
        <mxCell id="K9f1tfayxkEBepAMyHmp-15" value="No" style="edgeLabel;html=1;align=center;verticalAlign=middle;resizable=0;points=[];" vertex="1" connectable="0" parent="K9f1tfayxkEBepAMyHmp-10">
          <mxGeometry x="-0.2" y="2" relative="1" as="geometry">
            <mxPoint x="8" y="-8" as="offset" />
          </mxGeometry>
        </mxCell>
        <mxCell id="K9f1tfayxkEBepAMyHmp-17" value="Select Unit" style="rounded=1;whiteSpace=wrap;html=1;shadow=0;strokeWidth=1;spacing=6;spacingTop=-4;" vertex="1" parent="K9f1tfayxkEBepAMyHmp-82">
          <mxGeometry x="350" y="455" width="120" height="60" as="geometry" />
        </mxCell>
        <mxCell id="K9f1tfayxkEBepAMyHmp-18" value="" style="edgeStyle=orthogonalEdgeStyle;rounded=0;orthogonalLoop=1;jettySize=auto;html=1;" edge="1" parent="K9f1tfayxkEBepAMyHmp-82" source="K9f1tfayxkEBepAMyHmp-7" target="K9f1tfayxkEBepAMyHmp-17">
          <mxGeometry relative="1" as="geometry" />
        </mxCell>
        <mxCell id="K9f1tfayxkEBepAMyHmp-20" value="No" style="edgeLabel;html=1;align=center;verticalAlign=middle;resizable=0;points=[];" vertex="1" connectable="0" parent="K9f1tfayxkEBepAMyHmp-18">
          <mxGeometry x="0.088" relative="1" as="geometry">
            <mxPoint y="-15" as="offset" />
          </mxGeometry>
        </mxCell>
        <mxCell id="K9f1tfayxkEBepAMyHmp-19" style="edgeStyle=orthogonalEdgeStyle;rounded=0;orthogonalLoop=1;jettySize=auto;html=1;entryX=0.5;entryY=1;entryDx=0;entryDy=0;exitX=0.5;exitY=1;exitDx=0;exitDy=0;" edge="1" parent="K9f1tfayxkEBepAMyHmp-82" source="K9f1tfayxkEBepAMyHmp-7" target="K9f1tfayxkEBepAMyHmp-17">
          <mxGeometry relative="1" as="geometry">
            <mxPoint x="230" y="590" as="targetPoint" />
            <Array as="points">
              <mxPoint x="230" y="545" />
              <mxPoint x="410" y="545" />
            </Array>
          </mxGeometry>
        </mxCell>
        <mxCell id="K9f1tfayxkEBepAMyHmp-21" value="Yes" style="edgeLabel;html=1;align=center;verticalAlign=middle;resizable=0;points=[];" vertex="1" connectable="0" parent="K9f1tfayxkEBepAMyHmp-19">
          <mxGeometry x="-0.0249" relative="1" as="geometry">
            <mxPoint x="-4" y="10" as="offset" />
          </mxGeometry>
        </mxCell>
        <mxCell id="K9f1tfayxkEBepAMyHmp-23" style="edgeStyle=orthogonalEdgeStyle;rounded=0;orthogonalLoop=1;jettySize=auto;html=1;entryX=0.5;entryY=0;entryDx=0;entryDy=0;" edge="1" parent="K9f1tfayxkEBepAMyHmp-82" source="K9f1tfayxkEBepAMyHmp-5" target="K9f1tfayxkEBepAMyHmp-6">
          <mxGeometry relative="1" as="geometry" />
        </mxCell>
        <mxCell id="K9f1tfayxkEBepAMyHmp-37" value="Switch state to&lt;br&gt;&amp;nbsp;&quot;Unit Selected&quot;" style="rounded=1;whiteSpace=wrap;html=1;shadow=0;strokeWidth=1;spacing=6;spacingTop=-4;" vertex="1" parent="K9f1tfayxkEBepAMyHmp-85">
          <mxGeometry x="490" y="455" width="120" height="60" as="geometry" />
        </mxCell>
        <mxCell id="K9f1tfayxkEBepAMyHmp-38" value="" style="edgeStyle=orthogonalEdgeStyle;rounded=0;orthogonalLoop=1;jettySize=auto;html=1;" edge="1" parent="K9f1tfayxkEBepAMyHmp-85" source="K9f1tfayxkEBepAMyHmp-17" target="K9f1tfayxkEBepAMyHmp-37">
          <mxGeometry relative="1" as="geometry" />
        </mxCell>
        <mxCell id="K9f1tfayxkEBepAMyHmp-59" value="Ability Use Button Pressed&lt;br&gt;" style="rounded=1;whiteSpace=wrap;html=1;" vertex="1" parent="K9f1tfayxkEBepAMyHmp-85">
          <mxGeometry x="10" y="150" width="120" height="60" as="geometry" />
        </mxCell>
        <mxCell id="K9f1tfayxkEBepAMyHmp-63" value="" style="edgeStyle=orthogonalEdgeStyle;rounded=0;orthogonalLoop=1;jettySize=auto;html=1;" edge="1" parent="K9f1tfayxkEBepAMyHmp-85" source="K9f1tfayxkEBepAMyHmp-59" target="K9f1tfayxkEBepAMyHmp-62">
          <mxGeometry relative="1" as="geometry" />
        </mxCell>
        <mxCell id="K9f1tfayxkEBepAMyHmp-62" value="Do Nothing&lt;br&gt;" style="rounded=1;whiteSpace=wrap;html=1;" vertex="1" parent="K9f1tfayxkEBepAMyHmp-85">
          <mxGeometry x="10" y="290" width="120" height="60" as="geometry" />
        </mxCell>
        <mxCell id="K9f1tfayxkEBepAMyHmp-25" value="" style="rounded=0;orthogonalLoop=1;jettySize=auto;html=1;fontSize=15;strokeWidth=5;exitX=1;exitY=0.5;exitDx=0;exitDy=0;entryX=0;entryY=0.75;entryDx=0;entryDy=0;" edge="1" parent="WIyWlLk6GJQsqaUBKTNV-1" source="K9f1tfayxkEBepAMyHmp-37" target="K9f1tfayxkEBepAMyHmp-86">
          <mxGeometry relative="1" as="geometry">
            <mxPoint x="520" y="454" as="sourcePoint" />
            <mxPoint x="580" y="439" as="targetPoint" />
          </mxGeometry>
        </mxCell>
        <mxCell id="K9f1tfayxkEBepAMyHmp-41" style="rounded=0;orthogonalLoop=1;jettySize=auto;html=1;strokeWidth=6;exitX=0;exitY=0.5;exitDx=0;exitDy=0;entryX=1;entryY=0.5;entryDx=0;entryDy=0;edgeStyle=orthogonalEdgeStyle;" edge="1" parent="WIyWlLk6GJQsqaUBKTNV-1" source="K9f1tfayxkEBepAMyHmp-39" target="K9f1tfayxkEBepAMyHmp-84">
          <mxGeometry relative="1" as="geometry">
            <mxPoint x="460" y="310" as="targetPoint" />
          </mxGeometry>
        </mxCell>
        <mxCell id="K9f1tfayxkEBepAMyHmp-49" style="edgeStyle=orthogonalEdgeStyle;rounded=0;orthogonalLoop=1;jettySize=auto;html=1;entryX=0;entryY=0.5;entryDx=0;entryDy=0;" edge="1" parent="WIyWlLk6GJQsqaUBKTNV-1" source="K9f1tfayxkEBepAMyHmp-45" target="K9f1tfayxkEBepAMyHmp-46">
          <mxGeometry relative="1" as="geometry" />
        </mxCell>
        <mxCell id="K9f1tfayxkEBepAMyHmp-51" style="edgeStyle=orthogonalEdgeStyle;rounded=0;orthogonalLoop=1;jettySize=auto;html=1;entryX=1;entryY=0.5;entryDx=0;entryDy=0;" edge="1" parent="WIyWlLk6GJQsqaUBKTNV-1" source="K9f1tfayxkEBepAMyHmp-45" target="K9f1tfayxkEBepAMyHmp-48">
          <mxGeometry relative="1" as="geometry" />
        </mxCell>
        <mxCell id="K9f1tfayxkEBepAMyHmp-45" value="Idle" style="rounded=0;whiteSpace=wrap;html=1;fontSize=35;" vertex="1" parent="WIyWlLk6GJQsqaUBKTNV-1">
          <mxGeometry x="570" y="-450" width="160" height="120" as="geometry" />
        </mxCell>
        <mxCell id="K9f1tfayxkEBepAMyHmp-50" style="edgeStyle=orthogonalEdgeStyle;rounded=0;orthogonalLoop=1;jettySize=auto;html=1;entryX=0;entryY=0.5;entryDx=0;entryDy=0;" edge="1" parent="WIyWlLk6GJQsqaUBKTNV-1" source="K9f1tfayxkEBepAMyHmp-46" target="K9f1tfayxkEBepAMyHmp-47">
          <mxGeometry relative="1" as="geometry" />
        </mxCell>
        <mxCell id="K9f1tfayxkEBepAMyHmp-54" style="edgeStyle=orthogonalEdgeStyle;rounded=0;orthogonalLoop=1;jettySize=auto;html=1;entryX=0.5;entryY=0;entryDx=0;entryDy=0;" edge="1" parent="WIyWlLk6GJQsqaUBKTNV-1" source="K9f1tfayxkEBepAMyHmp-46" target="K9f1tfayxkEBepAMyHmp-45">
          <mxGeometry relative="1" as="geometry">
            <Array as="points">
              <mxPoint x="870" y="-510" />
              <mxPoint x="650" y="-510" />
            </Array>
          </mxGeometry>
        </mxCell>
        <mxCell id="K9f1tfayxkEBepAMyHmp-46" value="Unit Selected" style="rounded=0;whiteSpace=wrap;html=1;fontSize=35;" vertex="1" parent="WIyWlLk6GJQsqaUBKTNV-1">
          <mxGeometry x="780" y="-450" width="240" height="120" as="geometry" />
        </mxCell>
        <mxCell id="K9f1tfayxkEBepAMyHmp-52" style="edgeStyle=orthogonalEdgeStyle;rounded=0;orthogonalLoop=1;jettySize=auto;html=1;entryX=0.5;entryY=0;entryDx=0;entryDy=0;" edge="1" parent="WIyWlLk6GJQsqaUBKTNV-1" source="K9f1tfayxkEBepAMyHmp-47" target="K9f1tfayxkEBepAMyHmp-46">
          <mxGeometry relative="1" as="geometry">
            <Array as="points">
              <mxPoint x="1225" y="-510" />
              <mxPoint x="900" y="-510" />
            </Array>
          </mxGeometry>
        </mxCell>
        <mxCell id="K9f1tfayxkEBepAMyHmp-53" style="edgeStyle=orthogonalEdgeStyle;rounded=0;orthogonalLoop=1;jettySize=auto;html=1;entryX=0.5;entryY=1;entryDx=0;entryDy=0;" edge="1" parent="WIyWlLk6GJQsqaUBKTNV-1" source="K9f1tfayxkEBepAMyHmp-47" target="K9f1tfayxkEBepAMyHmp-45">
          <mxGeometry relative="1" as="geometry">
            <Array as="points">
              <mxPoint x="1225" y="-230" />
              <mxPoint x="650" y="-230" />
            </Array>
          </mxGeometry>
        </mxCell>
        <mxCell id="K9f1tfayxkEBepAMyHmp-47" value="Ability Confirmation" style="rounded=0;whiteSpace=wrap;html=1;fontSize=35;" vertex="1" parent="WIyWlLk6GJQsqaUBKTNV-1">
          <mxGeometry x="1060" y="-450" width="330" height="120" as="geometry" />
        </mxCell>
        <mxCell id="K9f1tfayxkEBepAMyHmp-55" style="edgeStyle=orthogonalEdgeStyle;rounded=0;orthogonalLoop=1;jettySize=auto;html=1;entryX=0.25;entryY=1;entryDx=0;entryDy=0;" edge="1" parent="WIyWlLk6GJQsqaUBKTNV-1" source="K9f1tfayxkEBepAMyHmp-48" target="K9f1tfayxkEBepAMyHmp-45">
          <mxGeometry relative="1" as="geometry">
            <Array as="points">
              <mxPoint x="410" y="-230" />
              <mxPoint x="610" y="-230" />
            </Array>
          </mxGeometry>
        </mxCell>
        <mxCell id="K9f1tfayxkEBepAMyHmp-48" value="Enemy Turn&lt;br style=&quot;font-size: 35px;&quot;&gt;" style="rounded=0;whiteSpace=wrap;html=1;fontSize=35;" vertex="1" parent="WIyWlLk6GJQsqaUBKTNV-1">
          <mxGeometry x="320" y="-450" width="190" height="120" as="geometry" />
        </mxCell>
        <mxCell id="K9f1tfayxkEBepAMyHmp-87" value="" style="group;sketch=1;curveFitting=1;jiggle=2;fillColor=#fad9d5;strokeColor=#ae4132;" vertex="1" connectable="0" parent="WIyWlLk6GJQsqaUBKTNV-1">
          <mxGeometry x="610" y="40" width="830" height="820" as="geometry" />
        </mxCell>
        <mxCell id="K9f1tfayxkEBepAMyHmp-86" value="" style="rounded=0;whiteSpace=wrap;html=1;fillColor=none;" vertex="1" parent="K9f1tfayxkEBepAMyHmp-87">
          <mxGeometry width="830" height="820" as="geometry" />
        </mxCell>
        <mxCell id="K9f1tfayxkEBepAMyHmp-26" value="Unit Selected" style="text;html=1;strokeColor=none;fillColor=none;align=center;verticalAlign=middle;whiteSpace=wrap;rounded=0;fontSize=60;fontFamily=Verdana;horizontal=1;fontStyle=4" vertex="1" parent="K9f1tfayxkEBepAMyHmp-87">
          <mxGeometry x="180" width="420" height="110" as="geometry" />
        </mxCell>
        <mxCell id="K9f1tfayxkEBepAMyHmp-27" value="Left Mouse Click" style="rounded=1;whiteSpace=wrap;html=1;fontSize=14;" vertex="1" parent="K9f1tfayxkEBepAMyHmp-87">
          <mxGeometry x="320" y="150" width="150" height="60" as="geometry" />
        </mxCell>
        <mxCell id="K9f1tfayxkEBepAMyHmp-30" value="Click on Unit?" style="rhombus;whiteSpace=wrap;html=1;shadow=0;fontFamily=Helvetica;fontSize=12;align=center;strokeWidth=1;spacing=6;spacingTop=-4;" vertex="1" parent="K9f1tfayxkEBepAMyHmp-87">
          <mxGeometry x="345" y="280" width="100" height="80" as="geometry" />
        </mxCell>
        <mxCell id="K9f1tfayxkEBepAMyHmp-32" style="edgeStyle=orthogonalEdgeStyle;rounded=0;orthogonalLoop=1;jettySize=auto;html=1;entryX=0.5;entryY=0;entryDx=0;entryDy=0;" edge="1" parent="K9f1tfayxkEBepAMyHmp-87" source="K9f1tfayxkEBepAMyHmp-27" target="K9f1tfayxkEBepAMyHmp-30">
          <mxGeometry relative="1" as="geometry" />
        </mxCell>
        <mxCell id="K9f1tfayxkEBepAMyHmp-39" value="Switch state to &quot;Idle" style="rounded=1;whiteSpace=wrap;html=1;shadow=0;strokeWidth=1;spacing=6;spacingTop=-4;" vertex="1" parent="K9f1tfayxkEBepAMyHmp-87">
          <mxGeometry x="10" y="290" width="120" height="60" as="geometry" />
        </mxCell>
        <mxCell id="K9f1tfayxkEBepAMyHmp-42" value="SelectUnit" style="rounded=1;whiteSpace=wrap;html=1;shadow=0;strokeWidth=1;spacing=6;spacingTop=-4;" vertex="1" parent="K9f1tfayxkEBepAMyHmp-87">
          <mxGeometry x="335" y="450" width="120" height="60" as="geometry" />
        </mxCell>
        <mxCell id="K9f1tfayxkEBepAMyHmp-43" value="" style="edgeStyle=orthogonalEdgeStyle;rounded=0;orthogonalLoop=1;jettySize=auto;html=1;" edge="1" parent="K9f1tfayxkEBepAMyHmp-87" source="K9f1tfayxkEBepAMyHmp-30" target="K9f1tfayxkEBepAMyHmp-42">
          <mxGeometry relative="1" as="geometry" />
        </mxCell>
        <mxCell id="K9f1tfayxkEBepAMyHmp-44" value="Yes" style="edgeLabel;html=1;align=center;verticalAlign=middle;resizable=0;points=[];" vertex="1" connectable="0" parent="K9f1tfayxkEBepAMyHmp-43">
          <mxGeometry x="-0.2296" relative="1" as="geometry">
            <mxPoint x="-20" y="5" as="offset" />
          </mxGeometry>
        </mxCell>
        <mxCell id="K9f1tfayxkEBepAMyHmp-58" style="edgeStyle=orthogonalEdgeStyle;rounded=0;orthogonalLoop=1;jettySize=auto;html=1;entryX=1;entryY=0.5;entryDx=0;entryDy=0;" edge="1" parent="K9f1tfayxkEBepAMyHmp-87" source="K9f1tfayxkEBepAMyHmp-57" target="K9f1tfayxkEBepAMyHmp-39">
          <mxGeometry relative="1" as="geometry" />
        </mxCell>
        <mxCell id="K9f1tfayxkEBepAMyHmp-57" value="Cancel selected unit" style="rounded=1;whiteSpace=wrap;html=1;" vertex="1" parent="K9f1tfayxkEBepAMyHmp-87">
          <mxGeometry x="150" y="290" width="120" height="60" as="geometry" />
        </mxCell>
        <mxCell id="K9f1tfayxkEBepAMyHmp-40" value="No&lt;br&gt;" style="edgeStyle=orthogonalEdgeStyle;rounded=0;orthogonalLoop=1;jettySize=auto;html=1;entryX=1;entryY=0.5;entryDx=0;entryDy=0;" edge="1" parent="K9f1tfayxkEBepAMyHmp-87" source="K9f1tfayxkEBepAMyHmp-30" target="K9f1tfayxkEBepAMyHmp-57">
          <mxGeometry x="-0.1429" y="-20" relative="1" as="geometry">
            <mxPoint x="150" y="330" as="targetPoint" />
            <mxPoint as="offset" />
          </mxGeometry>
        </mxCell>
        <mxCell id="K9f1tfayxkEBepAMyHmp-65" value="Ability Use Button Pressed&lt;br&gt;" style="rounded=1;whiteSpace=wrap;html=1;" vertex="1" parent="K9f1tfayxkEBepAMyHmp-87">
          <mxGeometry x="520" y="150" width="120" height="60" as="geometry" />
        </mxCell>
        <mxCell id="K9f1tfayxkEBepAMyHmp-66" value="Do Nothing&lt;br&gt;" style="rounded=1;whiteSpace=wrap;html=1;" vertex="1" parent="K9f1tfayxkEBepAMyHmp-87">
          <mxGeometry x="680" y="275" width="120" height="60" as="geometry" />
        </mxCell>
        <mxCell id="K9f1tfayxkEBepAMyHmp-70" value="" style="edgeStyle=orthogonalEdgeStyle;rounded=0;orthogonalLoop=1;jettySize=auto;html=1;entryX=0;entryY=0.5;entryDx=0;entryDy=0;" edge="1" parent="K9f1tfayxkEBepAMyHmp-87" source="K9f1tfayxkEBepAMyHmp-67" target="K9f1tfayxkEBepAMyHmp-66">
          <mxGeometry relative="1" as="geometry">
            <Array as="points" />
          </mxGeometry>
        </mxCell>
        <mxCell id="K9f1tfayxkEBepAMyHmp-71" value="No" style="edgeLabel;html=1;align=center;verticalAlign=middle;resizable=0;points=[];" vertex="1" connectable="0" parent="K9f1tfayxkEBepAMyHmp-70">
          <mxGeometry x="-0.0047" relative="1" as="geometry">
            <mxPoint x="-5" y="15" as="offset" />
          </mxGeometry>
        </mxCell>
        <mxCell id="K9f1tfayxkEBepAMyHmp-67" value="Selected Player Unit?" style="rhombus;shadow=0;fontFamily=Helvetica;fontSize=12;align=center;strokeWidth=1;spacing=6;spacingTop=-4;verticalAlign=middle;labelBackgroundColor=none;labelBorderColor=none;whiteSpace=wrap;html=1;" vertex="1" parent="K9f1tfayxkEBepAMyHmp-87">
          <mxGeometry x="520" y="250" width="120" height="110" as="geometry" />
        </mxCell>
        <mxCell id="K9f1tfayxkEBepAMyHmp-68" style="edgeStyle=orthogonalEdgeStyle;rounded=0;orthogonalLoop=1;jettySize=auto;html=1;entryX=0.5;entryY=0;entryDx=0;entryDy=0;" edge="1" parent="K9f1tfayxkEBepAMyHmp-87" source="K9f1tfayxkEBepAMyHmp-65" target="K9f1tfayxkEBepAMyHmp-67">
          <mxGeometry relative="1" as="geometry" />
        </mxCell>
        <mxCell id="K9f1tfayxkEBepAMyHmp-274" style="edgeStyle=orthogonalEdgeStyle;rounded=0;orthogonalLoop=1;jettySize=auto;html=1;entryX=0.5;entryY=0;entryDx=0;entryDy=0;" edge="1" parent="K9f1tfayxkEBepAMyHmp-87" source="K9f1tfayxkEBepAMyHmp-75" target="K9f1tfayxkEBepAMyHmp-273">
          <mxGeometry relative="1" as="geometry" />
        </mxCell>
        <mxCell id="K9f1tfayxkEBepAMyHmp-276" value="Yes&lt;br&gt;" style="edgeLabel;html=1;align=center;verticalAlign=middle;resizable=0;points=[];" vertex="1" connectable="0" parent="K9f1tfayxkEBepAMyHmp-274">
          <mxGeometry x="-0.287" y="-1" relative="1" as="geometry">
            <mxPoint x="21" y="3" as="offset" />
          </mxGeometry>
        </mxCell>
        <mxCell id="K9f1tfayxkEBepAMyHmp-75" value="Ability is Availabe?" style="rhombus;whiteSpace=wrap;html=1;" vertex="1" parent="K9f1tfayxkEBepAMyHmp-87">
          <mxGeometry x="540" y="440" width="80" height="80" as="geometry" />
        </mxCell>
        <mxCell id="K9f1tfayxkEBepAMyHmp-72" style="edgeStyle=orthogonalEdgeStyle;rounded=0;orthogonalLoop=1;jettySize=auto;html=1;entryX=0.5;entryY=0;entryDx=0;entryDy=0;" edge="1" parent="K9f1tfayxkEBepAMyHmp-87" source="K9f1tfayxkEBepAMyHmp-67" target="K9f1tfayxkEBepAMyHmp-75">
          <mxGeometry relative="1" as="geometry">
            <mxPoint x="580" y="450" as="targetPoint" />
          </mxGeometry>
        </mxCell>
        <mxCell id="K9f1tfayxkEBepAMyHmp-74" value="Yes" style="edgeLabel;html=1;align=center;verticalAlign=middle;resizable=0;points=[];" vertex="1" connectable="0" parent="K9f1tfayxkEBepAMyHmp-72">
          <mxGeometry x="-0.0914" y="-2" relative="1" as="geometry">
            <mxPoint x="32" as="offset" />
          </mxGeometry>
        </mxCell>
        <mxCell id="K9f1tfayxkEBepAMyHmp-76" value="Do Nothing" style="rounded=1;whiteSpace=wrap;html=1;" vertex="1" parent="K9f1tfayxkEBepAMyHmp-87">
          <mxGeometry x="680" y="450" width="120" height="60" as="geometry" />
        </mxCell>
        <mxCell id="K9f1tfayxkEBepAMyHmp-77" value="" style="edgeStyle=orthogonalEdgeStyle;rounded=0;orthogonalLoop=1;jettySize=auto;html=1;" edge="1" parent="K9f1tfayxkEBepAMyHmp-87" source="K9f1tfayxkEBepAMyHmp-75" target="K9f1tfayxkEBepAMyHmp-76">
          <mxGeometry relative="1" as="geometry" />
        </mxCell>
        <mxCell id="K9f1tfayxkEBepAMyHmp-80" value="No" style="edgeLabel;html=1;align=center;verticalAlign=middle;resizable=0;points=[];" vertex="1" connectable="0" parent="K9f1tfayxkEBepAMyHmp-77">
          <mxGeometry x="-0.2056" y="3" relative="1" as="geometry">
            <mxPoint y="23" as="offset" />
          </mxGeometry>
        </mxCell>
        <mxCell id="K9f1tfayxkEBepAMyHmp-78" value="Change state to &quot;Ability Confirmation&quot;" style="rounded=1;whiteSpace=wrap;html=1;" vertex="1" parent="K9f1tfayxkEBepAMyHmp-87">
          <mxGeometry x="520" y="680" width="120" height="60" as="geometry" />
        </mxCell>
        <mxCell id="K9f1tfayxkEBepAMyHmp-275" style="edgeStyle=orthogonalEdgeStyle;rounded=0;orthogonalLoop=1;jettySize=auto;html=1;entryX=0.5;entryY=0;entryDx=0;entryDy=0;" edge="1" parent="K9f1tfayxkEBepAMyHmp-87" source="K9f1tfayxkEBepAMyHmp-273" target="K9f1tfayxkEBepAMyHmp-78">
          <mxGeometry relative="1" as="geometry" />
        </mxCell>
        <mxCell id="K9f1tfayxkEBepAMyHmp-273" value="Select ability" style="rounded=1;whiteSpace=wrap;html=1;" vertex="1" parent="K9f1tfayxkEBepAMyHmp-87">
          <mxGeometry x="520" y="580" width="120" height="60" as="geometry" />
        </mxCell>
        <mxCell id="K9f1tfayxkEBepAMyHmp-91" value="" style="group" vertex="1" connectable="0" parent="WIyWlLk6GJQsqaUBKTNV-1">
          <mxGeometry x="1520" y="40" width="1400" height="1080" as="geometry" />
        </mxCell>
        <mxCell id="K9f1tfayxkEBepAMyHmp-92" value="" style="rounded=0;whiteSpace=wrap;html=1;fillColor=#fad9d5;glass=0;strokeColor=#ae4132;shadow=0;sketch=1;curveFitting=1;jiggle=2;" vertex="1" parent="K9f1tfayxkEBepAMyHmp-91">
          <mxGeometry width="1400" height="1080" as="geometry" />
        </mxCell>
        <mxCell id="K9f1tfayxkEBepAMyHmp-93" value="Ability Confirmation" style="text;html=1;strokeColor=none;fillColor=none;align=center;verticalAlign=middle;whiteSpace=wrap;rounded=0;fontSize=60;fontFamily=Verdana;horizontal=1;fontStyle=4" vertex="1" parent="K9f1tfayxkEBepAMyHmp-91">
          <mxGeometry x="418.64" y="50" width="620" height="110" as="geometry" />
        </mxCell>
        <mxCell id="K9f1tfayxkEBepAMyHmp-94" value="Left Mouse Click" style="rounded=1;whiteSpace=wrap;html=1;fontSize=14;" vertex="1" parent="K9f1tfayxkEBepAMyHmp-91">
          <mxGeometry x="442.29" y="170" width="150" height="60" as="geometry" />
        </mxCell>
        <mxCell id="K9f1tfayxkEBepAMyHmp-96" style="edgeStyle=orthogonalEdgeStyle;rounded=0;orthogonalLoop=1;jettySize=auto;html=1;entryX=0.5;entryY=0;entryDx=0;entryDy=0;" edge="1" parent="K9f1tfayxkEBepAMyHmp-91" source="K9f1tfayxkEBepAMyHmp-94" target="K9f1tfayxkEBepAMyHmp-161">
          <mxGeometry relative="1" as="geometry">
            <mxPoint x="608.64" y="340" as="targetPoint" />
          </mxGeometry>
        </mxCell>
        <mxCell id="K9f1tfayxkEBepAMyHmp-104" value="Ability Selected" style="rounded=1;whiteSpace=wrap;html=1;" vertex="1" parent="K9f1tfayxkEBepAMyHmp-91">
          <mxGeometry x="1020" y="160" width="120" height="60" as="geometry" />
        </mxCell>
        <mxCell id="K9f1tfayxkEBepAMyHmp-109" style="edgeStyle=orthogonalEdgeStyle;rounded=0;orthogonalLoop=1;jettySize=auto;html=1;entryX=0.5;entryY=0;entryDx=0;entryDy=0;" edge="1" parent="K9f1tfayxkEBepAMyHmp-91" source="K9f1tfayxkEBepAMyHmp-104" target="K9f1tfayxkEBepAMyHmp-116">
          <mxGeometry relative="1" as="geometry">
            <mxPoint x="1080" y="260" as="targetPoint" />
          </mxGeometry>
        </mxCell>
        <mxCell id="K9f1tfayxkEBepAMyHmp-116" value="Change Ability" style="rounded=1;whiteSpace=wrap;html=1;" vertex="1" parent="K9f1tfayxkEBepAMyHmp-91">
          <mxGeometry x="1020" y="300" width="120" height="60" as="geometry" />
        </mxCell>
        <mxCell id="K9f1tfayxkEBepAMyHmp-197" style="edgeStyle=orthogonalEdgeStyle;rounded=0;orthogonalLoop=1;jettySize=auto;html=1;" edge="1" parent="K9f1tfayxkEBepAMyHmp-91" source="K9f1tfayxkEBepAMyHmp-159" target="K9f1tfayxkEBepAMyHmp-195">
          <mxGeometry relative="1" as="geometry" />
        </mxCell>
        <mxCell id="K9f1tfayxkEBepAMyHmp-282" value="Yes" style="edgeLabel;html=1;align=center;verticalAlign=middle;resizable=0;points=[];" vertex="1" connectable="0" parent="K9f1tfayxkEBepAMyHmp-197">
          <mxGeometry x="-0.0369" y="3" relative="1" as="geometry">
            <mxPoint x="20" y="-18" as="offset" />
          </mxGeometry>
        </mxCell>
        <mxCell id="K9f1tfayxkEBepAMyHmp-198" style="edgeStyle=orthogonalEdgeStyle;rounded=0;orthogonalLoop=1;jettySize=auto;html=1;entryX=0;entryY=0.5;entryDx=0;entryDy=0;" edge="1" parent="K9f1tfayxkEBepAMyHmp-91" source="K9f1tfayxkEBepAMyHmp-159" target="K9f1tfayxkEBepAMyHmp-196">
          <mxGeometry relative="1" as="geometry" />
        </mxCell>
        <mxCell id="K9f1tfayxkEBepAMyHmp-281" value="No" style="edgeLabel;html=1;align=center;verticalAlign=middle;resizable=0;points=[];" vertex="1" connectable="0" parent="K9f1tfayxkEBepAMyHmp-198">
          <mxGeometry x="-0.3011" relative="1" as="geometry">
            <mxPoint x="11" y="-20" as="offset" />
          </mxGeometry>
        </mxCell>
        <mxCell id="K9f1tfayxkEBepAMyHmp-159" value="Player Unit?" style="rhombus;whiteSpace=wrap;html=1;" vertex="1" parent="K9f1tfayxkEBepAMyHmp-91">
          <mxGeometry x="475.46000000000004" y="460" width="83.64" height="80" as="geometry" />
        </mxCell>
        <mxCell id="K9f1tfayxkEBepAMyHmp-164" style="edgeStyle=orthogonalEdgeStyle;rounded=0;orthogonalLoop=1;jettySize=auto;html=1;entryX=1;entryY=0.5;entryDx=0;entryDy=0;" edge="1" parent="K9f1tfayxkEBepAMyHmp-91" source="K9f1tfayxkEBepAMyHmp-161" target="K9f1tfayxkEBepAMyHmp-163">
          <mxGeometry relative="1" as="geometry" />
        </mxCell>
        <mxCell id="K9f1tfayxkEBepAMyHmp-277" value="No" style="edgeLabel;html=1;align=center;verticalAlign=middle;resizable=0;points=[];" vertex="1" connectable="0" parent="K9f1tfayxkEBepAMyHmp-164">
          <mxGeometry x="-0.0848" y="2" relative="1" as="geometry">
            <mxPoint y="-17" as="offset" />
          </mxGeometry>
        </mxCell>
        <mxCell id="K9f1tfayxkEBepAMyHmp-165" style="edgeStyle=orthogonalEdgeStyle;rounded=0;orthogonalLoop=1;jettySize=auto;html=1;entryX=0.5;entryY=0;entryDx=0;entryDy=0;" edge="1" parent="K9f1tfayxkEBepAMyHmp-91" source="K9f1tfayxkEBepAMyHmp-161" target="K9f1tfayxkEBepAMyHmp-159">
          <mxGeometry relative="1" as="geometry" />
        </mxCell>
        <mxCell id="K9f1tfayxkEBepAMyHmp-280" value="Yes" style="edgeLabel;html=1;align=center;verticalAlign=middle;resizable=0;points=[];" vertex="1" connectable="0" parent="K9f1tfayxkEBepAMyHmp-165">
          <mxGeometry x="-0.1863" y="1" relative="1" as="geometry">
            <mxPoint x="22" as="offset" />
          </mxGeometry>
        </mxCell>
        <mxCell id="K9f1tfayxkEBepAMyHmp-161" value="Clicked on Unit?" style="rhombus;whiteSpace=wrap;html=1;" vertex="1" parent="K9f1tfayxkEBepAMyHmp-91">
          <mxGeometry x="477.29" y="290" width="80" height="80" as="geometry" />
        </mxCell>
        <mxCell id="K9f1tfayxkEBepAMyHmp-168" style="edgeStyle=orthogonalEdgeStyle;rounded=0;orthogonalLoop=1;jettySize=auto;html=1;entryX=0.5;entryY=0;entryDx=0;entryDy=0;" edge="1" parent="K9f1tfayxkEBepAMyHmp-91" source="K9f1tfayxkEBepAMyHmp-163" target="K9f1tfayxkEBepAMyHmp-167">
          <mxGeometry relative="1" as="geometry" />
        </mxCell>
        <mxCell id="K9f1tfayxkEBepAMyHmp-278" value="Yes&lt;br&gt;" style="edgeLabel;html=1;align=center;verticalAlign=middle;resizable=0;points=[];" vertex="1" connectable="0" parent="K9f1tfayxkEBepAMyHmp-168">
          <mxGeometry x="-0.2565" relative="1" as="geometry">
            <mxPoint x="-25" as="offset" />
          </mxGeometry>
        </mxCell>
        <mxCell id="K9f1tfayxkEBepAMyHmp-169" style="edgeStyle=orthogonalEdgeStyle;rounded=0;orthogonalLoop=1;jettySize=auto;html=1;entryX=1;entryY=0.5;entryDx=0;entryDy=0;" edge="1" parent="K9f1tfayxkEBepAMyHmp-91" source="K9f1tfayxkEBepAMyHmp-163" target="K9f1tfayxkEBepAMyHmp-166">
          <mxGeometry relative="1" as="geometry" />
        </mxCell>
        <mxCell id="K9f1tfayxkEBepAMyHmp-279" value="No" style="edgeLabel;html=1;align=center;verticalAlign=middle;resizable=0;points=[];" vertex="1" connectable="0" parent="K9f1tfayxkEBepAMyHmp-169">
          <mxGeometry x="-0.3091" y="-1" relative="1" as="geometry">
            <mxPoint y="-19" as="offset" />
          </mxGeometry>
        </mxCell>
        <mxCell id="K9f1tfayxkEBepAMyHmp-163" value="Ability Non Target?" style="rhombus;whiteSpace=wrap;html=1;" vertex="1" parent="K9f1tfayxkEBepAMyHmp-91">
          <mxGeometry x="305" y="290" width="80" height="80" as="geometry" />
        </mxCell>
        <mxCell id="K9f1tfayxkEBepAMyHmp-166" value="Change State to&lt;br&gt;&amp;nbsp;&quot;Unit Selected&quot;" style="rounded=1;whiteSpace=wrap;html=1;fontSize=14;" vertex="1" parent="K9f1tfayxkEBepAMyHmp-91">
          <mxGeometry x="100" y="300" width="150" height="60" as="geometry" />
        </mxCell>
        <mxCell id="K9f1tfayxkEBepAMyHmp-167" value="Use Ability" style="rounded=1;whiteSpace=wrap;html=1;fontSize=14;" vertex="1" parent="K9f1tfayxkEBepAMyHmp-91">
          <mxGeometry x="270" y="410" width="150" height="60" as="geometry" />
        </mxCell>
        <mxCell id="K9f1tfayxkEBepAMyHmp-203" style="edgeStyle=orthogonalEdgeStyle;rounded=0;orthogonalLoop=1;jettySize=auto;html=1;entryX=0.5;entryY=0;entryDx=0;entryDy=0;" edge="1" parent="K9f1tfayxkEBepAMyHmp-91" source="K9f1tfayxkEBepAMyHmp-195" target="K9f1tfayxkEBepAMyHmp-199">
          <mxGeometry relative="1" as="geometry" />
        </mxCell>
        <mxCell id="K9f1tfayxkEBepAMyHmp-286" value="Yes" style="edgeLabel;html=1;align=center;verticalAlign=middle;resizable=0;points=[];" vertex="1" connectable="0" parent="K9f1tfayxkEBepAMyHmp-203">
          <mxGeometry x="0.0643" y="-2" relative="1" as="geometry">
            <mxPoint x="25" y="-2" as="offset" />
          </mxGeometry>
        </mxCell>
        <mxCell id="K9f1tfayxkEBepAMyHmp-204" style="edgeStyle=orthogonalEdgeStyle;rounded=0;orthogonalLoop=1;jettySize=auto;html=1;entryX=0;entryY=0.5;entryDx=0;entryDy=0;" edge="1" parent="K9f1tfayxkEBepAMyHmp-91" source="K9f1tfayxkEBepAMyHmp-195" target="K9f1tfayxkEBepAMyHmp-200">
          <mxGeometry relative="1" as="geometry" />
        </mxCell>
        <mxCell id="K9f1tfayxkEBepAMyHmp-285" value="No" style="edgeLabel;html=1;align=center;verticalAlign=middle;resizable=0;points=[];" vertex="1" connectable="0" parent="K9f1tfayxkEBepAMyHmp-204">
          <mxGeometry x="-0.2401" y="1" relative="1" as="geometry">
            <mxPoint y="-19" as="offset" />
          </mxGeometry>
        </mxCell>
        <mxCell id="K9f1tfayxkEBepAMyHmp-195" value="Ability Should be used on Player unit?" style="rhombus;whiteSpace=wrap;html=1;" vertex="1" parent="K9f1tfayxkEBepAMyHmp-91">
          <mxGeometry x="433.64" y="680" width="167.29" height="160" as="geometry" />
        </mxCell>
        <mxCell id="K9f1tfayxkEBepAMyHmp-205" style="edgeStyle=orthogonalEdgeStyle;rounded=0;orthogonalLoop=1;jettySize=auto;html=1;entryX=0.5;entryY=0;entryDx=0;entryDy=0;" edge="1" parent="K9f1tfayxkEBepAMyHmp-91" source="K9f1tfayxkEBepAMyHmp-196" target="K9f1tfayxkEBepAMyHmp-201">
          <mxGeometry relative="1" as="geometry" />
        </mxCell>
        <mxCell id="K9f1tfayxkEBepAMyHmp-284" value="Yes&lt;br&gt;" style="edgeLabel;html=1;align=center;verticalAlign=middle;resizable=0;points=[];" vertex="1" connectable="0" parent="K9f1tfayxkEBepAMyHmp-205">
          <mxGeometry x="-0.5812" y="-2" relative="1" as="geometry">
            <mxPoint x="23" y="1" as="offset" />
          </mxGeometry>
        </mxCell>
        <mxCell id="K9f1tfayxkEBepAMyHmp-206" style="edgeStyle=orthogonalEdgeStyle;rounded=0;orthogonalLoop=1;jettySize=auto;html=1;entryX=0;entryY=0.5;entryDx=0;entryDy=0;" edge="1" parent="K9f1tfayxkEBepAMyHmp-91" source="K9f1tfayxkEBepAMyHmp-196" target="K9f1tfayxkEBepAMyHmp-202">
          <mxGeometry relative="1" as="geometry" />
        </mxCell>
        <mxCell id="K9f1tfayxkEBepAMyHmp-283" value="No" style="edgeLabel;html=1;align=center;verticalAlign=middle;resizable=0;points=[];" vertex="1" connectable="0" parent="K9f1tfayxkEBepAMyHmp-206">
          <mxGeometry x="-0.0907" relative="1" as="geometry">
            <mxPoint y="-20" as="offset" />
          </mxGeometry>
        </mxCell>
        <mxCell id="K9f1tfayxkEBepAMyHmp-196" value="Ability Should be used on Enemy unit?" style="rhombus;whiteSpace=wrap;html=1;" vertex="1" parent="K9f1tfayxkEBepAMyHmp-91">
          <mxGeometry x="623.64" y="420" width="167.28" height="160" as="geometry" />
        </mxCell>
        <mxCell id="K9f1tfayxkEBepAMyHmp-199" value="Use ability" style="rounded=1;whiteSpace=wrap;html=1;" vertex="1" parent="K9f1tfayxkEBepAMyHmp-91">
          <mxGeometry x="457.28999999999996" y="900" width="120" height="60" as="geometry" />
        </mxCell>
        <mxCell id="K9f1tfayxkEBepAMyHmp-200" value="Do Nothing&lt;br&gt;" style="rounded=1;whiteSpace=wrap;html=1;" vertex="1" parent="K9f1tfayxkEBepAMyHmp-91">
          <mxGeometry x="647.28" y="730" width="120" height="60" as="geometry" />
        </mxCell>
        <mxCell id="K9f1tfayxkEBepAMyHmp-201" value="Use ability" style="rounded=1;whiteSpace=wrap;html=1;" vertex="1" parent="K9f1tfayxkEBepAMyHmp-91">
          <mxGeometry x="647.28" y="620" width="120" height="60" as="geometry" />
        </mxCell>
        <mxCell id="K9f1tfayxkEBepAMyHmp-202" value="Do Nothing" style="rounded=1;whiteSpace=wrap;html=1;" vertex="1" parent="K9f1tfayxkEBepAMyHmp-91">
          <mxGeometry x="830" y="470" width="120" height="60" as="geometry" />
        </mxCell>
        <mxCell id="K9f1tfayxkEBepAMyHmp-119" style="edgeStyle=orthogonalEdgeStyle;rounded=0;orthogonalLoop=1;jettySize=auto;html=1;entryX=0.243;entryY=1.001;entryDx=0;entryDy=0;entryPerimeter=0;exitX=0.45;exitY=1.017;exitDx=0;exitDy=0;exitPerimeter=0;strokeWidth=7;" edge="1" parent="WIyWlLk6GJQsqaUBKTNV-1" source="K9f1tfayxkEBepAMyHmp-78" target="K9f1tfayxkEBepAMyHmp-92">
          <mxGeometry relative="1" as="geometry">
            <Array as="points">
              <mxPoint x="1184" y="1150" />
              <mxPoint x="1860" y="1150" />
            </Array>
          </mxGeometry>
        </mxCell>
        <mxCell id="K9f1tfayxkEBepAMyHmp-244" style="edgeStyle=orthogonalEdgeStyle;rounded=0;orthogonalLoop=1;jettySize=auto;html=1;entryX=0.998;entryY=0.491;entryDx=0;entryDy=0;entryPerimeter=0;exitX=0;exitY=0.5;exitDx=0;exitDy=0;strokeWidth=7;" edge="1" parent="WIyWlLk6GJQsqaUBKTNV-1" source="K9f1tfayxkEBepAMyHmp-166" target="K9f1tfayxkEBepAMyHmp-86">
          <mxGeometry relative="1" as="geometry">
            <mxPoint x="1194" y="681" as="sourcePoint" />
            <mxPoint x="1870" y="1131" as="targetPoint" />
            <Array as="points">
              <mxPoint x="1570" y="370" />
              <mxPoint x="1570" y="443" />
            </Array>
          </mxGeometry>
        </mxCell>
      </root>
    </mxGraphModel>
  </diagram>
</mxfile>
